<svg width="43" height="42" viewBox="0 0 43 42" fill="none" xmlns="http://www.w3.org/2000/svg">
<path id="Vector" d="M27.737 8.169C27.5958 7.65226 27.2562 7.21224 26.792 6.94477C26.3279 6.67731 25.7769 6.60406 25.259 6.741L18.119 8.652L8.795 0L6.212 0.693L11.798 10.332L5.099 12.117L2.453 10.059L0.5 10.584L3.986 16.632L26.288 10.668C27.38 10.353 28.01 9.24 27.737 8.169ZM40.4 16.737L38.3 20.937H27.8L25.7 16.737L27.8 14.637H32V10.437H34.1V14.637H38.3L40.4 16.737ZM42.5 37.737V41.937H0.5V37.737H27.8V23.037H38.3V37.737H42.5Z" fill="black"/>
</svg>
