<svg width="12" height="13" viewBox="0 0 12 13" fill="none" xmlns="http://www.w3.org/2000/svg">
<path id="Vector" d="M6.71499 12.2092L11.715 7.20921C11.806 7.11411 11.8774 7.00196 11.925 6.87921C12.025 6.63575 12.025 6.36267 11.925 6.11921C11.8774 5.99646 11.806 5.88431 11.715 5.78921L6.71499 0.789209C6.62175 0.69597 6.51106 0.622009 6.38924 0.571549C6.26741 0.521089 6.13685 0.495117 6.00499 0.495117C5.73868 0.495117 5.48329 0.600905 5.29499 0.789209C5.10668 0.977512 5.00089 1.23291 5.00089 1.49921C5.00089 1.76551 5.10668 2.0209 5.29499 2.20921L8.59499 5.49921L1.00499 5.49921C0.73977 5.49921 0.485415 5.60457 0.297879 5.7921C0.110343 5.97964 0.00498651 6.23399 0.0049865 6.49921C0.00498649 6.76442 0.110343 7.01878 0.297879 7.20632C0.485415 7.39385 0.73977 7.49921 1.00499 7.49921L8.59499 7.49921L5.29499 10.7892C5.20126 10.8822 5.12686 10.9928 5.07609 11.1146C5.02533 11.2365 4.99919 11.3672 4.99919 11.4992C4.99919 11.6312 5.02533 11.7619 5.07609 11.8838C5.12686 12.0056 5.20126 12.1162 5.29499 12.2092C5.38795 12.3029 5.49855 12.3773 5.62041 12.4281C5.74227 12.4789 5.87297 12.505 6.00499 12.505C6.137 12.505 6.2677 12.4789 6.38956 12.4281C6.51142 12.3773 6.62202 12.3029 6.71499 12.2092Z" fill="black"/>
</svg>
