<svg width="20" height="21" viewBox="0 0 20 21" fill="none" xmlns="http://www.w3.org/2000/svg">
<g id="ArrowRightShort">
<path id="Vector" fill-rule="evenodd" clip-rule="evenodd" d="M5 10.4998C5 10.3341 5.06585 10.1751 5.18306 10.0579C5.30027 9.94066 5.45924 9.87481 5.625 9.87481H12.8663L10.1825 7.19231C10.0651 7.07496 9.99921 6.91578 9.99921 6.74981C9.99921 6.58384 10.0651 6.42467 10.1825 6.30731C10.2999 6.18995 10.459 6.12402 10.625 6.12402C10.791 6.12402 10.9501 6.18995 11.0675 6.30731L14.8175 10.0573C14.8757 10.1154 14.9219 10.1843 14.9534 10.2603C14.9849 10.3362 15.0011 10.4176 15.0011 10.4998C15.0011 10.582 14.9849 10.6634 14.9534 10.7394C14.9219 10.8153 14.8757 10.8843 14.8175 10.9423L11.0675 14.6923C10.9501 14.8097 10.791 14.8756 10.625 14.8756C10.459 14.8756 10.2999 14.8097 10.1825 14.6923C10.0651 14.575 9.99921 14.4158 9.99921 14.2498C9.99921 14.0838 10.0651 13.9247 10.1825 13.8073L12.8663 11.1248H5.625C5.45924 11.1248 5.30027 11.059 5.18306 10.9418C5.06585 10.8245 5 10.6656 5 10.4998Z" fill="#8B95A1"/>
</g>
</svg>
