<svg width="9" height="15" viewBox="0 0 9 15" fill="none" xmlns="http://www.w3.org/2000/svg">
<path id="Vector" d="M0.983889 7.90615L7.24741 13.8741C7.35192 13.9737 7.49077 14.0293 7.63516 14.0293C7.77955 14.0293 7.9184 13.9737 8.02291 13.8741L8.02965 13.8673C8.08049 13.819 8.12098 13.7609 8.14864 13.6965C8.1763 13.632 8.19057 13.5626 8.19057 13.4925C8.19057 13.4224 8.1763 13.353 8.14864 13.2886C8.12098 13.2241 8.08049 13.166 8.02965 13.1177L2.1314 7.49817L8.02965 1.88089C8.08049 1.83259 8.12098 1.77446 8.14864 1.71002C8.1763 1.64559 8.19057 1.57619 8.19057 1.50607C8.19057 1.43595 8.1763 1.36655 8.14864 1.30212C8.12098 1.23768 8.08049 1.17955 8.02965 1.13125L8.02291 1.1245C7.9184 1.02487 7.77955 0.969297 7.63516 0.969297C7.49077 0.969297 7.35192 1.02487 7.24741 1.1245L0.983889 7.09244C0.928803 7.14493 0.884949 7.20805 0.854985 7.27798C0.825021 7.34792 0.80957 7.42321 0.80957 7.4993C0.80957 7.57538 0.825021 7.65067 0.854985 7.72061C0.884949 7.79055 0.928803 7.85367 0.983889 7.90615Z" fill="#D9D9D9"/>
</svg>
