<svg width="9" height="15" viewBox="0 0 9 15" fill="none" xmlns="http://www.w3.org/2000/svg">
<path id="Vector" d="M8.01611 7.09385L1.75259 1.12591C1.64808 1.02628 1.50923 0.970703 1.36484 0.970703C1.22045 0.970703 1.0816 1.02628 0.977092 1.12591L0.970348 1.13265C0.919508 1.18095 0.879026 1.23909 0.851362 1.30352C0.823699 1.36796 0.809433 1.43735 0.809433 1.50747C0.809433 1.5776 0.823699 1.64699 0.851362 1.71143C0.879026 1.77586 0.919508 1.834 0.970348 1.8823L6.8686 7.50183L0.970348 13.1191C0.919508 13.1674 0.879025 13.2255 0.851362 13.29C0.823698 13.3544 0.809432 13.4238 0.809432 13.4939C0.809432 13.5641 0.823698 13.6334 0.851362 13.6979C0.879025 13.7623 0.919508 13.8205 0.970348 13.8688L0.977092 13.8755C1.0816 13.9751 1.22045 14.0307 1.36484 14.0307C1.50923 14.0307 1.64808 13.9751 1.75259 13.8755L8.01611 7.90756C8.0712 7.85507 8.11505 7.79195 8.14501 7.72202C8.17498 7.65208 8.19043 7.57679 8.19043 7.5007C8.19043 7.42462 8.17498 7.34933 8.14501 7.27939C8.11505 7.20945 8.0712 7.14633 8.01611 7.09385Z" fill="#808080"/>
</svg>
