<svg width="51" height="46" viewBox="0 0 51 46" fill="none" xmlns="http://www.w3.org/2000/svg">
<g id="carbon:bus">
<path id="Vector" d="M42.6875 17.1875H45.8125V23.4375H42.6875V17.1875ZM5.1875 17.1875H8.3125V23.4375H5.1875V17.1875ZM31.75 31.25H34.875V34.375H31.75V31.25ZM16.125 31.25H19.25V34.375H16.125V31.25Z" fill="black"/>
<path id="Vector_2" d="M33.3125 6.25H17.6875C15.6163 6.25248 13.6306 7.07638 12.166 8.54097C10.7014 10.0056 9.87748 11.9913 9.875 14.0625V35.9375C9.875 36.7663 10.2042 37.5612 10.7903 38.1472C11.3763 38.7333 12.1712 39.0625 13 39.0625V43.75H16.125V39.0625H34.875V43.75H38V39.0625C38.8284 39.0613 39.6226 38.7316 40.2083 38.1458C40.7941 37.5601 41.1238 36.7659 41.125 35.9375V14.0625C41.1225 11.9913 40.2986 10.0056 38.834 8.54097C37.3694 7.07638 35.3837 6.25248 33.3125 6.25ZM38 15.625V25H13V15.625H38ZM17.6875 9.375H33.3125C34.2788 9.37787 35.2205 9.6798 36.0084 10.2393C36.7962 10.7989 37.3915 11.5886 37.7125 12.5H13.2875C13.6085 11.5886 14.2038 10.7989 14.9916 10.2393C15.7795 9.6798 16.7212 9.37787 17.6875 9.375ZM13 35.9375V28.125H38.0016L38.0031 35.9375H13Z" fill="black"/>
</g>
</svg>
