<svg width="43" height="40" viewBox="0 0 43 40" fill="none" xmlns="http://www.w3.org/2000/svg">
<path id="Vector" d="M21.5 0C19.505 0 18.1715 1.4322 17.4323 2.6922C16.6742 3.9921 16.25 5.5776 16.25 6.825C16.25 7.8624 16.3823 9.2904 17.1572 10.4916C18.0203 11.823 19.4819 12.6 21.5 12.6C23.5181 12.6 24.9818 11.823 25.8428 10.4916C26.6198 9.2904 26.75 7.8624 26.75 6.825C26.75 5.5776 26.3258 3.99 25.5677 2.6922C24.8306 1.4322 23.495 0 21.5 0ZM19.4 6.825C19.4 6.174 19.6541 5.1345 20.1518 4.284C20.6726 3.3936 21.1745 3.15 21.5 3.15C21.8255 3.15 22.3274 3.3936 22.8482 4.284C23.3459 5.1345 23.6 6.174 23.6 6.825C23.6 7.686 23.4698 8.358 23.1947 8.7822C23.0057 9.0762 22.6277 9.45 21.5 9.45C20.3702 9.45 19.9943 9.0762 19.8053 8.7822C19.5323 8.358 19.4 7.686 19.4 6.825ZM39.35 19.425V36.75H40.925C41.3427 36.75 41.7433 36.9159 42.0387 37.2113C42.3341 37.5067 42.5 37.9073 42.5 38.325C42.5 38.7427 42.3341 39.1433 42.0387 39.4387C41.7433 39.7341 41.3427 39.9 40.925 39.9H2.075C1.65728 39.9 1.25668 39.7341 0.961307 39.4387C0.665937 39.1433 0.5 38.7427 0.5 38.325C0.5 37.9073 0.665937 37.5067 0.961307 37.2113C1.25668 36.9159 1.65728 36.75 2.075 36.75H3.65V19.425C3.65 18.1719 4.14781 16.97 5.03392 16.0839C5.92003 15.1978 7.12185 14.7 8.375 14.7H34.625C35.8781 14.7 37.08 15.1978 37.9661 16.0839C38.8522 16.97 39.35 18.1719 39.35 19.425ZM6.8 19.425V23.8161L11.9387 27.1341C12.363 27.4081 12.8574 27.5538 13.3625 27.5538C13.8676 27.5538 14.362 27.4081 14.7863 27.1341L18.455 24.7653C19.3595 24.1821 20.409 23.8632 21.485 23.8446C22.5611 23.8261 23.6209 24.1086 24.545 24.6603L28.7639 27.1782C29.199 27.438 29.7 27.5664 30.2064 27.5478C30.7128 27.5291 31.203 27.3643 31.6178 27.0732L36.2 23.856V19.425C36.2 19.0073 36.0341 18.6067 35.7387 18.3113C35.4433 18.0159 35.0427 17.85 34.625 17.85H8.375C7.95728 17.85 7.55668 18.0159 7.26131 18.3113C6.96594 18.6067 6.8 19.0073 6.8 19.425ZM33.428 29.652C32.5154 30.2925 31.4369 30.6552 30.3227 30.6962C29.2085 30.7372 28.1062 30.4547 27.149 29.883L22.9322 27.363C22.5119 27.112 22.0298 26.9835 21.5404 26.992C21.0509 27.0005 20.5736 27.1458 20.1623 27.4113L16.4936 29.7801C15.5603 30.3823 14.4732 30.7026 13.3625 30.7026C12.2518 30.7026 11.1647 30.3823 10.2314 29.7801L6.8 27.5646V36.75H36.2V27.7053L33.428 29.652Z" fill="black"/>
</svg>
