<svg width="45" height="44" viewBox="0 0 45 44" fill="none" xmlns="http://www.w3.org/2000/svg">
<g id="clarity:date-outline-badged" clip-path="url(#clip0_17_360)">
<path id="Vector" d="M39.6113 16.1577V36.6666H5.3891V9.7777H9.05576V7.33325H5.08354C4.79783 7.33803 4.51586 7.39904 4.25373 7.51281C3.99161 7.62657 3.75446 7.79086 3.55584 7.9963C3.35721 8.20173 3.20101 8.44428 3.09614 8.71009C2.99127 8.9759 2.93979 9.25976 2.94465 9.54547V36.8988C2.93979 37.1845 2.99127 37.4684 3.09614 37.7342C3.20101 38 3.35721 38.2425 3.55584 38.448C3.75446 38.6534 3.99161 38.8177 4.25373 38.9315C4.51586 39.0452 4.79783 39.1062 5.08354 39.111H39.9169C40.2026 39.1062 40.4846 39.0452 40.7467 38.9315C41.0088 38.8177 41.246 38.6534 41.4446 38.448C41.6432 38.2425 41.7994 38 41.9043 37.7342C42.0092 37.4684 42.0606 37.1845 42.0558 36.8988V15.0821C41.2982 15.5588 40.4746 15.9213 39.6113 16.1577Z" fill="black"/>
<path id="Vector_2" d="M10.2778 17.1111H12.7223V19.5555H10.2778V17.1111Z" fill="black"/>
<path id="Vector_3" d="M17.6113 17.1111H20.0558V19.5555H17.6113V17.1111Z" fill="black"/>
<path id="Vector_4" d="M24.9443 17.1111H27.3888V19.5555H24.9443V17.1111Z" fill="black"/>
<path id="Vector_5" d="M32.2778 17.1111H34.7223V19.5555H32.2778V17.1111Z" fill="black"/>
<path id="Vector_6" d="M10.2778 23.2222H12.7223V25.6666H10.2778V23.2222Z" fill="black"/>
<path id="Vector_7" d="M17.6113 23.2222H20.0558V25.6666H17.6113V23.2222Z" fill="black"/>
<path id="Vector_8" d="M24.9443 23.2222H27.3888V25.6666H24.9443V23.2222Z" fill="black"/>
<path id="Vector_9" d="M32.2778 23.2222H34.7223V25.6666H32.2778V23.2222Z" fill="black"/>
<path id="Vector_10" d="M10.2778 29.3333H12.7223V31.7777H10.2778V29.3333Z" fill="black"/>
<path id="Vector_11" d="M17.6113 29.3333H20.0558V31.7777H17.6113V29.3333Z" fill="black"/>
<path id="Vector_12" d="M24.9443 29.3333H27.3888V31.7777H24.9443V29.3333Z" fill="black"/>
<path id="Vector_13" d="M32.2778 29.3333H34.7223V31.7777H32.2778V29.3333Z" fill="black"/>
<path id="Vector_14" d="M12.7222 12.2221C13.0464 12.2221 13.3573 12.0933 13.5865 11.8641C13.8157 11.6349 13.9444 11.324 13.9444 10.9999V3.66656C13.9444 3.3424 13.8157 3.03153 13.5865 2.80232C13.3573 2.57311 13.0464 2.44434 12.7222 2.44434C12.3981 2.44434 12.0872 2.57311 11.858 2.80232C11.6288 3.03153 11.5 3.3424 11.5 3.66656V10.9999C11.5 11.324 11.6288 11.6349 11.858 11.8641C12.0872 12.0933 12.3981 12.2221 12.7222 12.2221Z" fill="black"/>
<path id="Vector_15" d="M27.9998 7.33325H16.3887V9.7777H28.342C28.1181 8.98207 28.003 8.15978 27.9998 7.33325Z" fill="black"/>
<path id="Vector_16" d="M37.1668 13.4444C40.5418 13.4444 43.2779 10.7084 43.2779 7.33328C43.2779 3.95821 40.5418 1.22217 37.1668 1.22217C33.7917 1.22217 31.0557 3.95821 31.0557 7.33328C31.0557 10.7084 33.7917 13.4444 37.1668 13.4444Z" fill="black"/>
</g>
<defs>
<clipPath id="clip0_17_360">
<rect width="44" height="44" fill="white" transform="translate(0.5)"/>
</clipPath>
</defs>
</svg>
