<svg width="29" height="28" viewBox="0 0 29 28" fill="none" xmlns="http://www.w3.org/2000/svg">
<g id="carbon:popup">
<path id="Vector" d="M25.333 3.5H9.58301C9.1193 3.50138 8.67499 3.6862 8.3471 4.01409C8.01921 4.34198 7.83439 4.7863 7.83301 5.25V17.5C7.83439 17.9637 8.01921 18.408 8.3471 18.7359C8.67499 19.0638 9.1193 19.2486 9.58301 19.25H25.333C25.7967 19.2486 26.241 19.0638 26.5689 18.7359C26.8968 18.408 27.0816 17.9637 27.083 17.5V5.25C27.0816 4.7863 26.8968 4.34198 26.5689 4.01409C26.241 3.6862 25.7967 3.50138 25.333 3.5ZM25.333 17.5H9.58301V5.25H25.333V17.5Z" fill="white"/>
<path id="Vector_2" d="M16.583 22.75H4.33301V14H6.08301V12.25H4.33301C3.8693 12.2514 3.42499 12.4362 3.0971 12.7641C2.76921 13.092 2.58439 13.5363 2.58301 14V22.75C2.58439 23.2137 2.76921 23.658 3.0971 23.9859C3.42499 24.3138 3.8693 24.4986 4.33301 24.5H16.583C17.0467 24.4986 17.491 24.3138 17.8189 23.9859C18.1468 23.658 18.3316 23.2137 18.333 22.75V21H16.583V22.75Z" fill="white"/>
</g>
</svg>
