<svg width="13" height="14" viewBox="0 0 13 14" fill="none" xmlns="http://www.w3.org/2000/svg">
<g id="circum:floppy-disk" clip-path="url(#clip0_40_43)">
<path id="Vector" d="M12.2885 3.39965L9.29132 0.951319C8.96768 0.691257 8.56539 0.548674 8.15021 0.546875H1.13021C0.84289 0.546875 0.56734 0.661012 0.364176 0.864176C0.161012 1.06734 0.046875 1.34289 0.046875 1.63021V12.3697C0.046875 12.657 0.161012 12.9325 0.364176 13.1357C0.56734 13.3389 0.84289 13.453 1.13021 13.453H11.8697C12.157 13.453 12.4325 13.3389 12.6357 13.1357C12.8388 12.9325 12.953 12.657 12.953 12.3697V4.80076C12.9533 4.53253 12.8938 4.26761 12.7788 4.02525C12.6639 3.78288 12.4964 3.56918 12.2885 3.39965ZM2.57465 1.2691H6.72743V2.25854C6.72743 2.35431 6.68938 2.44616 6.62166 2.51389C6.55394 2.58161 6.46209 2.61965 6.36632 2.61965H2.93576C2.83999 2.61965 2.74814 2.58161 2.68042 2.51389C2.6127 2.44616 2.57465 2.35431 2.57465 2.25854V1.2691ZM2.57465 12.7308V8.44799C2.57465 8.16067 2.68879 7.88512 2.89195 7.68195C3.09512 7.47879 3.37067 7.36465 3.65799 7.36465H9.34188C9.62919 7.36465 9.90474 7.47879 10.1079 7.68195C10.3111 7.88512 10.4252 8.16067 10.4252 8.44799V12.7308H2.57465ZM12.2308 12.3697C12.2308 12.4654 12.1927 12.5573 12.125 12.625C12.0573 12.6927 11.9654 12.7308 11.8697 12.7308H11.1474V8.44799C11.1461 7.96953 10.9554 7.51106 10.6171 7.17274C10.2788 6.83442 9.82033 6.64377 9.34188 6.64243H3.65799C3.17912 6.64243 2.71987 6.83266 2.38127 7.17127C2.04266 7.50987 1.85243 7.96912 1.85243 8.44799V12.7308H1.13021C1.03444 12.7308 0.942586 12.6927 0.874864 12.625C0.807143 12.5573 0.769097 12.4654 0.769097 12.3697V1.63021C0.769097 1.53444 0.807143 1.44259 0.874864 1.37486C0.942586 1.30714 1.03444 1.2691 1.13021 1.2691H1.85243V2.25854C1.85243 2.54586 1.96657 2.82141 2.16973 3.02457C2.3729 3.22774 2.64845 3.34188 2.93576 3.34188H6.36632C6.65364 3.34188 6.92919 3.22774 7.13235 3.02457C7.33552 2.82141 7.44965 2.54586 7.44965 2.25854V1.2691H8.15021C8.4004 1.26926 8.64283 1.35603 8.83632 1.51465L11.8263 3.95576C11.9535 4.05666 12.056 4.18519 12.126 4.3316C12.1961 4.47801 12.2319 4.63845 12.2308 4.80076V12.3697Z" fill="black"/>
</g>
<defs>
<clipPath id="clip0_40_43">
<rect width="13" height="13" fill="white" transform="translate(0 0.5)"/>
</clipPath>
</defs>
</svg>
