<svg width="14" height="14" viewBox="0 0 14 14" fill="none" xmlns="http://www.w3.org/2000/svg">
<g id="Clock" clip-path="url(#clip0_17_168)">
<path id="Vector" d="M7 3.0625C7 2.94647 6.95391 2.83519 6.87186 2.75314C6.78981 2.67109 6.67853 2.625 6.5625 2.625C6.44647 2.625 6.33519 2.67109 6.25314 2.75314C6.17109 2.83519 6.125 2.94647 6.125 3.0625V7.875C6.12502 7.95212 6.14543 8.02785 6.18415 8.09454C6.22288 8.16123 6.27854 8.2165 6.3455 8.25475L9.408 10.0048C9.5085 10.0591 9.62626 10.0719 9.73611 10.0406C9.84596 10.0092 9.93919 9.93611 9.99587 9.83692C10.0525 9.73774 10.0682 9.62031 10.0394 9.50975C10.0107 9.39919 9.93982 9.30426 9.842 9.24525L7 7.62125V3.0625Z" fill="black"/>
<path id="Vector_2" d="M7 14C8.85652 14 10.637 13.2625 11.9497 11.9497C13.2625 10.637 14 8.85652 14 7C14 5.14348 13.2625 3.36301 11.9497 2.05025C10.637 0.737498 8.85652 0 7 0C5.14348 0 3.36301 0.737498 2.05025 2.05025C0.737498 3.36301 0 5.14348 0 7C0 8.85652 0.737498 10.637 2.05025 11.9497C3.36301 13.2625 5.14348 14 7 14ZM13.125 7C13.125 8.62445 12.4797 10.1824 11.331 11.331C10.1824 12.4797 8.62445 13.125 7 13.125C5.37555 13.125 3.81763 12.4797 2.66897 11.331C1.52031 10.1824 0.875 8.62445 0.875 7C0.875 5.37555 1.52031 3.81763 2.66897 2.66897C3.81763 1.52031 5.37555 0.875 7 0.875C8.62445 0.875 10.1824 1.52031 11.331 2.66897C12.4797 3.81763 13.125 5.37555 13.125 7Z" fill="black"/>
</g>
<defs>
<clipPath id="clip0_17_168">
<rect width="14" height="14" fill="white"/>
</clipPath>
</defs>
</svg>
