<svg width="45" height="41" viewBox="0 0 45 41" fill="none" xmlns="http://www.w3.org/2000/svg">
<path id="Vector" d="M13.6033 2.48485C12.0861 2.48485 10.631 3.07389 9.55824 4.12239C8.48543 5.17089 7.88273 6.59296 7.88273 8.07576C7.88273 9.55856 8.48543 10.9806 9.55824 12.0291C10.631 13.0776 12.0861 13.6667 13.6033 13.6667C15.1204 13.6667 16.5755 13.0776 17.6483 12.0291C18.7211 10.9806 19.3238 9.55856 19.3238 8.07576C19.3238 6.59296 18.7211 5.17089 17.6483 4.12239C16.5755 3.07389 15.1204 2.48485 13.6033 2.48485ZM5.34028 8.07576C5.34028 5.93393 6.21084 3.87983 7.76045 2.36533C9.31006 0.850836 11.4118 0 13.6033 0C15.7947 0 17.8965 0.850836 19.4461 2.36533C20.9957 3.87983 21.8662 5.93393 21.8662 8.07576C21.8662 10.2176 20.9957 12.2717 19.4461 13.7862C17.8965 15.3007 15.7947 16.1515 13.6033 16.1515C11.4118 16.1515 9.31006 15.3007 7.76045 13.7862C6.21084 12.2717 5.34028 10.2176 5.34028 8.07576ZM5.34028 18.6364C3.99168 18.6364 2.69831 19.16 1.74471 20.092C0.791101 21.024 0.255371 22.288 0.255371 23.6061V23.8148C0.259029 23.9601 0.269209 24.1052 0.28588 24.2496C0.466077 25.86 1.05129 27.4017 1.98932 28.7373C3.77158 31.2594 7.21407 33.5455 13.6033 33.5455C16.0084 33.5455 17.9941 33.2224 19.6314 32.6832C19.4517 31.8632 19.35 31.0184 19.3263 30.1487C17.8924 30.7003 16.0288 31.0606 13.6033 31.0606C7.91578 31.0606 5.31994 29.0752 4.08176 27.3259C3.38833 26.3371 2.95359 25.1972 2.81562 24.0061L2.80037 23.7999L2.79783 23.7576V23.6061C2.79783 22.947 3.06569 22.315 3.54249 21.849C4.0193 21.383 4.66598 21.1212 5.34028 21.1212H21.8662C22.0713 21.1212 22.2705 21.1444 22.4637 21.1908C23.04 20.495 23.6824 19.8614 24.3909 19.2899C23.6219 18.8609 22.7516 18.6357 21.8662 18.6364H5.34028ZM33.3073 6.21212C32.2958 6.21212 31.3258 6.60481 30.6106 7.30381C29.8954 8.00281 29.4936 8.95086 29.4936 9.93939C29.4936 10.9279 29.8954 11.876 30.6106 12.575C31.3258 13.274 32.2958 13.6667 33.3073 13.6667C34.3187 13.6667 35.2887 13.274 36.004 12.575C36.7192 11.876 37.121 10.9279 37.121 9.93939C37.121 8.95086 36.7192 8.00281 36.004 7.30381C35.2887 6.60481 34.3187 6.21212 33.3073 6.21212ZM26.9511 9.93939C26.9511 8.29184 27.6208 6.71176 28.8128 5.54676C30.0048 4.38176 31.6215 3.72727 33.3073 3.72727C34.993 3.72727 36.6097 4.38176 37.8017 5.54676C38.9937 6.71176 39.6634 8.29184 39.6634 9.93939C39.6634 11.587 38.9937 13.167 37.8017 14.332C36.6097 15.497 34.993 16.1515 33.3073 16.1515C31.6215 16.1515 30.0048 15.497 28.8128 14.332C27.6208 13.167 26.9511 11.587 26.9511 9.93939ZM33.3073 41C35.8172 40.9992 38.2572 40.1918 40.2513 38.7022C42.2455 37.2126 43.6831 35.1234 44.3426 32.7566C45.0022 30.3897 44.8471 27.8766 43.9013 25.6044C42.9554 23.3322 41.2713 21.427 39.1085 20.1825C36.9456 18.9379 34.424 18.4229 31.9322 18.717C29.4404 19.0111 27.1166 20.0978 25.319 21.8098C23.5214 23.5217 22.3497 25.7639 21.9845 28.1908C21.6192 30.6178 22.0806 33.0947 23.2976 35.2401L21.9145 39.6855C21.8609 39.8615 21.8569 40.0484 21.903 40.2264C21.9491 40.4044 22.0436 40.567 22.1765 40.6968C22.3093 40.8267 22.4756 40.919 22.6578 40.9641C22.8399 41.0091 23.0311 41.0052 23.2112 40.9528L27.7622 39.601C29.4593 40.5192 31.3675 41.0006 33.3073 41ZM26.9511 27.3333C26.9511 27.0038 27.0851 26.6878 27.3235 26.4548C27.5619 26.2218 27.8852 26.0909 28.2224 26.0909H38.3922C38.7293 26.0909 39.0527 26.2218 39.2911 26.4548C39.5295 26.6878 39.6634 27.0038 39.6634 27.3333C39.6634 27.6628 39.5295 27.9789 39.2911 28.2119C39.0527 28.4449 38.7293 28.5758 38.3922 28.5758H28.2224C27.8852 28.5758 27.5619 28.4449 27.3235 28.2119C27.0851 27.9789 26.9511 27.6628 26.9511 27.3333ZM28.2224 33.5455C27.8852 33.5455 27.5619 33.4146 27.3235 33.1816C27.0851 32.9486 26.9511 32.6325 26.9511 32.303C26.9511 31.9735 27.0851 31.6575 27.3235 31.4245C27.5619 31.1915 27.8852 31.0606 28.2224 31.0606H33.3073C33.6444 31.0606 33.9678 31.1915 34.2062 31.4245C34.4446 31.6575 34.5785 31.9735 34.5785 32.303C34.5785 32.6325 34.4446 32.9486 34.2062 33.1816C33.9678 33.4146 33.6444 33.5455 33.3073 33.5455H28.2224Z" fill="black"/>
</svg>
