<svg width="16" height="17" viewBox="0 0 16 17" fill="none" xmlns="http://www.w3.org/2000/svg">
<g id="fluent:mail-16-regular">
<path id="Vector" d="M2 6.538V11.5C2 12.0304 2.21071 12.5391 2.58579 12.9142C2.96086 13.2893 3.46957 13.5 4 13.5H12C12.5304 13.5 13.0391 13.2893 13.4142 12.9142C13.7893 12.5391 14 12.0304 14 11.5V5.5C14 4.96957 13.7893 4.46086 13.4142 4.08579C13.0391 3.71071 12.5304 3.5 12 3.5H4C3.46957 3.5 2.96086 3.71071 2.58579 4.08579C2.21071 4.46086 2 4.96957 2 5.5V6.538ZM4 4.5H12C12.2652 4.5 12.5196 4.60536 12.7071 4.79289C12.8946 4.98043 13 5.23478 13 5.5V6.24L8 8.932L3 6.24V5.5C3 5.23478 3.10536 4.98043 3.29289 4.79289C3.48043 4.60536 3.73478 4.5 4 4.5ZM3 7.376L7.763 9.94C7.83584 9.97921 7.91727 9.99974 8 9.99974C8.08273 9.99974 8.16416 9.97921 8.237 9.94L13 7.376V11.5C13 11.7652 12.8946 12.0196 12.7071 12.2071C12.5196 12.3946 12.2652 12.5 12 12.5H4C3.73478 12.5 3.48043 12.3946 3.29289 12.2071C3.10536 12.0196 3 11.7652 3 11.5V7.376Z" fill="#989898"/>
</g>
</svg>
