<svg width="30" height="30" viewBox="0 0 30 30" fill="none" xmlns="http://www.w3.org/2000/svg">
<g id="ep:arrow-up">
<path id="Vector" d="M15.6789 19.9123L25.6351 9.46294C25.8013 9.28859 25.894 9.05695 25.894 8.81606C25.894 8.57518 25.8013 8.34354 25.6351 8.16919L25.6239 8.15794C25.5433 8.07312 25.4463 8.00559 25.3388 7.95944C25.2313 7.91329 25.1155 7.88949 24.9986 7.88949C24.8816 7.88949 24.7658 7.91329 24.6583 7.95944C24.5508 8.00559 24.4538 8.07312 24.3732 8.15794L14.9982 17.9979L5.62699 8.15794C5.54642 8.07312 5.44943 8.00559 5.34193 7.95944C5.23443 7.91329 5.11867 7.88949 5.00168 7.88949C4.88469 7.88949 4.76893 7.91329 4.66143 7.95944C4.55393 8.00559 4.45694 8.07312 4.37637 8.15794L4.36512 8.16919C4.19891 8.34354 4.10619 8.57518 4.10619 8.81607C4.10619 9.05695 4.19891 9.28859 4.36512 9.46294L14.3214 19.9123C14.4089 20.0042 14.5142 20.0774 14.6309 20.1274C14.7476 20.1773 14.8732 20.2031 15.0001 20.2031C15.127 20.2031 15.2527 20.1773 15.3693 20.1274C15.486 20.0774 15.5913 20.0042 15.6789 19.9123Z" fill="black"/>
</g>
</svg>
