<svg width="30" height="30" viewBox="0 0 30 30" fill="none" xmlns="http://www.w3.org/2000/svg">
<g id="ep:arrow-up">
<path id="Vector" d="M14.3211 10.0877L4.36489 20.5371C4.19868 20.7114 4.10596 20.9431 4.10596 21.1839C4.10596 21.4248 4.19868 21.6565 4.36489 21.8308L4.37614 21.8421C4.45671 21.9269 4.5537 21.9944 4.6612 22.0406C4.7687 22.0867 4.88446 22.1105 5.00145 22.1105C5.11844 22.1105 5.2342 22.0867 5.3417 22.0406C5.4492 21.9944 5.54619 21.9269 5.62676 21.8421L15.0018 12.0021L24.373 21.8421C24.4536 21.9269 24.5506 21.9944 24.6581 22.0406C24.7656 22.0867 24.8813 22.1105 24.9983 22.1105C25.1153 22.1105 25.2311 22.0867 25.3386 22.0406C25.4461 21.9944 25.5431 21.9269 25.6236 21.8421L25.6349 21.8308C25.8011 21.6565 25.8938 21.4248 25.8938 21.1839C25.8938 20.9431 25.8011 20.7114 25.6349 20.5371L15.6786 10.0877C15.5911 9.99579 15.4858 9.92263 15.3691 9.87264C15.2524 9.82265 15.1268 9.79688 14.9999 9.79688C14.873 9.79688 14.7473 9.82265 14.6307 9.87264C14.514 9.92263 14.4087 9.99579 14.3211 10.0877Z" fill="black"/>
</g>
</svg>
