<svg width="17" height="17" viewBox="0 0 17 17" fill="none" xmlns="http://www.w3.org/2000/svg">
<g id="quill:warning-alt" clip-path="url(#clip0_63_135)">
<g id="Group">
<path id="Vector" d="M8.50003 9.41075V4.55361M16.3929 8.50003C16.3929 10.5934 15.5613 12.6009 14.0811 14.0811C12.6009 15.5613 10.5934 16.3929 8.50003 16.3929C6.40672 16.3929 4.39914 15.5613 2.91894 14.0811C1.43874 12.6009 0.607178 10.5934 0.607178 8.50003C0.607178 6.40672 1.43874 4.39914 2.91894 2.91894C4.39914 1.43874 6.40672 0.607178 8.50003 0.607178C10.5934 0.607178 12.6009 1.43874 14.0811 2.91894C15.5613 4.39914 16.3929 6.40672 16.3929 8.50003Z" stroke="black" stroke-linecap="round" stroke-linejoin="round"/>
<path id="Vector_2" d="M9.10723 12.1428C9.10723 12.3038 9.04326 12.4582 8.9294 12.5721C8.81554 12.686 8.66111 12.7499 8.50009 12.7499C8.33906 12.7499 8.18463 12.686 8.07077 12.5721C7.95691 12.4582 7.89294 12.3038 7.89294 12.1428C7.89294 11.9818 7.95691 11.8273 8.07077 11.7135C8.18463 11.5996 8.33906 11.5356 8.50009 11.5356C8.66111 11.5356 8.81554 11.5996 8.9294 11.7135C9.04326 11.8273 9.10723 11.9818 9.10723 12.1428Z" fill="black" stroke="black"/>
</g>
</g>
<defs>
<clipPath id="clip0_63_135">
<rect width="17" height="17" fill="white"/>
</clipPath>
</defs>
</svg>
