<svg width="51" height="40" viewBox="0 0 51 40" fill="none" xmlns="http://www.w3.org/2000/svg">
<path id="Vector" d="M48.8333 36.6667H47.1667V8.33333C47.1667 7.89131 46.9911 7.46738 46.6785 7.15482C46.366 6.84226 45.942 6.66667 45.5 6.66667H37.1667V1.66667C37.1667 1.22464 36.9911 0.800716 36.6785 0.488156C36.366 0.175595 35.942 0 35.5 0H15.5C15.058 0 14.634 0.175595 14.3215 0.488156C14.0089 0.800716 13.8333 1.22464 13.8333 1.66667V13.3333H5.5C5.05797 13.3333 4.63405 13.5089 4.32149 13.8215C4.00893 14.134 3.83333 14.558 3.83333 15V36.6667H2.16667C1.72464 36.6667 1.30072 36.8423 0.988155 37.1548C0.675595 37.4674 0.5 37.8913 0.5 38.3333C0.5 38.7754 0.675595 39.1993 0.988155 39.5118C1.30072 39.8244 1.72464 40 2.16667 40H48.8333C49.2754 40 49.6993 39.8244 50.0118 39.5118C50.3244 39.1993 50.5 38.7754 50.5 38.3333C50.5 37.8913 50.3244 37.4674 50.0118 37.1548C49.6993 36.8423 49.2754 36.6667 48.8333 36.6667ZM7.16667 16.6667H15.5C15.942 16.6667 16.3659 16.4911 16.6785 16.1785C16.9911 15.8659 17.1667 15.442 17.1667 15V3.33333H33.8333V8.33333C33.8333 8.77536 34.0089 9.19928 34.3215 9.51184C34.634 9.8244 35.058 10 35.5 10H43.8333V36.6667H30.5V28.3333C30.5 27.8913 30.3244 27.4674 30.0118 27.1548C29.6993 26.8423 29.2754 26.6667 28.8333 26.6667H22.1667C21.7246 26.6667 21.3007 26.8423 20.9882 27.1548C20.6756 27.4674 20.5 27.8913 20.5 28.3333V36.6667H7.16667V16.6667ZM27.1667 36.6667H23.8333V30H27.1667V36.6667ZM22.1667 8.33333C22.1667 7.89131 22.3423 7.46738 22.6548 7.15482C22.9674 6.84226 23.3913 6.66667 23.8333 6.66667H27.1667C27.6087 6.66667 28.0326 6.84226 28.3452 7.15482C28.6577 7.46738 28.8333 7.89131 28.8333 8.33333C28.8333 8.77536 28.6577 9.19928 28.3452 9.51184C28.0326 9.8244 27.6087 10 27.1667 10H23.8333C23.3913 10 22.9674 9.8244 22.6548 9.51184C22.3423 9.19928 22.1667 8.77536 22.1667 8.33333ZM22.1667 15C22.1667 14.558 22.3423 14.134 22.6548 13.8215C22.9674 13.5089 23.3913 13.3333 23.8333 13.3333H27.1667C27.6087 13.3333 28.0326 13.5089 28.3452 13.8215C28.6577 14.134 28.8333 14.558 28.8333 15C28.8333 15.442 28.6577 15.8659 28.3452 16.1785C28.0326 16.4911 27.6087 16.6667 27.1667 16.6667H23.8333C23.3913 16.6667 22.9674 16.4911 22.6548 16.1785C22.3423 15.8659 22.1667 15.442 22.1667 15ZM33.8333 15C33.8333 14.558 34.0089 14.134 34.3215 13.8215C34.634 13.5089 35.058 13.3333 35.5 13.3333H38.8333C39.2754 13.3333 39.6993 13.5089 40.0118 13.8215C40.3244 14.134 40.5 14.558 40.5 15C40.5 15.442 40.3244 15.8659 40.0118 16.1785C39.6993 16.4911 39.2754 16.6667 38.8333 16.6667H35.5C35.058 16.6667 34.634 16.4911 34.3215 16.1785C34.0089 15.8659 33.8333 15.442 33.8333 15ZM17.1667 21.6667C17.1667 22.1087 16.9911 22.5326 16.6785 22.8452C16.3659 23.1577 15.942 23.3333 15.5 23.3333H12.1667C11.7246 23.3333 11.3007 23.1577 10.9882 22.8452C10.6756 22.5326 10.5 22.1087 10.5 21.6667C10.5 21.2246 10.6756 20.8007 10.9882 20.4882C11.3007 20.1756 11.7246 20 12.1667 20H15.5C15.942 20 16.3659 20.1756 16.6785 20.4882C16.9911 20.8007 17.1667 21.2246 17.1667 21.6667ZM17.1667 28.3333C17.1667 28.7754 16.9911 29.1993 16.6785 29.5118C16.3659 29.8244 15.942 30 15.5 30H12.1667C11.7246 30 11.3007 29.8244 10.9882 29.5118C10.6756 29.1993 10.5 28.7754 10.5 28.3333C10.5 27.8913 10.6756 27.4674 10.9882 27.1548C11.3007 26.8423 11.7246 26.6667 12.1667 26.6667H15.5C15.942 26.6667 16.3659 26.8423 16.6785 27.1548C16.9911 27.4674 17.1667 27.8913 17.1667 28.3333ZM22.1667 21.6667C22.1667 21.2246 22.3423 20.8007 22.6548 20.4882C22.9674 20.1756 23.3913 20 23.8333 20H27.1667C27.6087 20 28.0326 20.1756 28.3452 20.4882C28.6577 20.8007 28.8333 21.2246 28.8333 21.6667C28.8333 22.1087 28.6577 22.5326 28.3452 22.8452C28.0326 23.1577 27.6087 23.3333 27.1667 23.3333H23.8333C23.3913 23.3333 22.9674 23.1577 22.6548 22.8452C22.3423 22.5326 22.1667 22.1087 22.1667 21.6667ZM33.8333 21.6667C33.8333 21.2246 34.0089 20.8007 34.3215 20.4882C34.634 20.1756 35.058 20 35.5 20H38.8333C39.2754 20 39.6993 20.1756 40.0118 20.4882C40.3244 20.8007 40.5 21.2246 40.5 21.6667C40.5 22.1087 40.3244 22.5326 40.0118 22.8452C39.6993 23.1577 39.2754 23.3333 38.8333 23.3333H35.5C35.058 23.3333 34.634 23.1577 34.3215 22.8452C34.0089 22.5326 33.8333 22.1087 33.8333 21.6667ZM33.8333 28.3333C33.8333 27.8913 34.0089 27.4674 34.3215 27.1548C34.634 26.8423 35.058 26.6667 35.5 26.6667H38.8333C39.2754 26.6667 39.6993 26.8423 40.0118 27.1548C40.3244 27.4674 40.5 27.8913 40.5 28.3333C40.5 28.7754 40.3244 29.1993 40.0118 29.5118C39.6993 29.8244 39.2754 30 38.8333 30H35.5C35.058 30 34.634 29.8244 34.3215 29.5118C34.0089 29.1993 33.8333 28.7754 33.8333 28.3333Z" fill="black"/>
</svg>
