<svg width="25" height="26" viewBox="0 0 25 26" fill="none" xmlns="http://www.w3.org/2000/svg">
<g id="ArrowDownCircleFill" clip-path="url(#clip0_13_204)">
<path id="Vector" d="M25 13C25 16.3152 23.683 19.4946 21.3388 21.8388C18.9946 24.183 15.8152 25.5 12.5 25.5C9.18479 25.5 6.00537 24.183 3.66117 21.8388C1.31696 19.4946 0 16.3152 0 13C0 9.68479 1.31696 6.50537 3.66117 4.16117C6.00537 1.81696 9.18479 0.5 12.5 0.5C15.8152 0.5 18.9946 1.81696 21.3388 4.16117C23.683 6.50537 25 9.68479 25 13ZM13.2812 7.53125C13.2812 7.32405 13.1989 7.12534 13.0524 6.97882C12.9059 6.83231 12.7072 6.75 12.5 6.75C12.2928 6.75 12.0941 6.83231 11.9476 6.97882C11.8011 7.12534 11.7188 7.32405 11.7188 7.53125V16.5828L8.36563 13.2281C8.21893 13.0814 8.01996 12.999 7.8125 12.999C7.60504 12.999 7.40607 13.0814 7.25937 13.2281C7.11268 13.3748 7.03026 13.5738 7.03026 13.7812C7.03026 13.9887 7.11268 14.1877 7.25937 14.3344L11.9469 19.0219C12.0194 19.0946 12.1057 19.1524 12.2006 19.1917C12.2955 19.2311 12.3972 19.2514 12.5 19.2514C12.6028 19.2514 12.7045 19.2311 12.7994 19.1917C12.8943 19.1524 12.9806 19.0946 13.0531 19.0219L17.7406 14.3344C17.8873 14.1877 17.9697 13.9887 17.9697 13.7812C17.9697 13.5738 17.8873 13.3748 17.7406 13.2281C17.5939 13.0814 17.395 12.999 17.1875 12.999C16.98 12.999 16.7811 13.0814 16.6344 13.2281L13.2812 16.5828V7.53125Z" fill="black"/>
</g>
<defs>
<clipPath id="clip0_13_204">
<rect width="25" height="25" fill="white" transform="translate(0 0.5)"/>
</clipPath>
</defs>
</svg>
