<svg width="16" height="15" viewBox="0 0 16 15" fill="none" xmlns="http://www.w3.org/2000/svg">
<path id="Vector" d="M10.0804 0.25C9.9726 0.25 9.86301 0.279224 9.76256 0.346804L3.28767 4.57877H0.292237C0.131507 4.57877 0 4.71028 0 4.87101V10.1313C0 10.292 0.131507 10.4235 0.292237 10.4235H3.28767L9.76256 14.6555C9.86301 14.7212 9.97443 14.7523 10.0804 14.7523C10.3854 14.7523 10.6667 14.5094 10.6667 14.166V0.836302C10.6667 0.492923 10.3854 0.25 10.0804 0.25ZM9.3516 12.8162L4.00731 9.32215L3.67854 9.10845H1.31507V5.89384H3.67854L4.00548 5.68014L9.3516 2.18607V12.8162ZM15.7078 6.84361H13.3699C13.2091 6.84361 13.0776 6.97512 13.0776 7.13585V7.86644C13.0776 8.02717 13.2091 8.15868 13.3699 8.15868H15.7078C15.8685 8.15868 16 8.02717 16 7.86644V7.13585C16 6.97512 15.8685 6.84361 15.7078 6.84361ZM14.9425 11.6253L12.9279 10.4619C12.8948 10.4429 12.8582 10.4307 12.8204 10.4258C12.7826 10.421 12.7442 10.4237 12.7074 10.4337C12.6706 10.4437 12.6361 10.4608 12.6059 10.4842C12.5757 10.5075 12.5505 10.5365 12.5315 10.5696L12.168 11.1998C12.0877 11.3386 12.1352 11.5176 12.274 11.598L14.2886 12.7614C14.3217 12.7804 14.3582 12.7926 14.396 12.7975C14.4339 12.8023 14.4723 12.7996 14.5091 12.7896C14.5459 12.7796 14.5804 12.7625 14.6105 12.7391C14.6407 12.7158 14.666 12.6868 14.6849 12.6537L15.0484 12.0235C15.1288 11.8847 15.0795 11.7057 14.9425 11.6253ZM12.5297 4.43265C12.5486 4.46575 12.5739 4.4948 12.6041 4.51813C12.6343 4.54146 12.6687 4.55862 12.7055 4.56863C12.7423 4.57864 12.7808 4.58129 12.8186 4.57645C12.8564 4.57161 12.8929 4.55937 12.926 4.54041L14.9406 3.37694C15.0795 3.29658 15.1269 3.11758 15.0466 2.97877L14.6849 2.35046C14.666 2.31736 14.6407 2.28831 14.6105 2.26498C14.5804 2.24165 14.5459 2.22449 14.5091 2.21448C14.4723 2.20447 14.4339 2.20182 14.396 2.20666C14.3582 2.2115 14.3217 2.22374 14.2886 2.2427L12.274 3.40617C12.2073 3.44505 12.1587 3.50877 12.1388 3.58339C12.119 3.65801 12.1295 3.73745 12.168 3.80434L12.5297 4.43265Z" fill="white"/>
</svg>
