<svg width="36" height="27" viewBox="0 0 36 27" fill="none" xmlns="http://www.w3.org/2000/svg">
<rect x="1" y="1" width="34" height="25" rx="3" stroke="black" stroke-width="2"/>
<path d="M15.8709 9.88815L20.4209 7.26315L20.5084 7.17565C20.5959 7.02982 20.5667 6.85482 20.4209 6.76732L15.8709 4.14232C15.8417 4.08398 15.7834 4.08398 15.7251 4.08398C15.5501 4.08398 15.4334 4.20065 15.4334 4.37565L15.4334 9.62565C15.4334 9.68399 15.4334 9.71315 15.4626 9.77149C15.5501 9.91732 15.7251 9.94648 15.8709 9.88815Z" fill="black"/>
<path d="M6.4 20.5V13.903H7.255L9.658 18.061L10.369 19.429H10.414C10.36 18.763 10.297 18.016 10.297 17.332V13.903H11.098V20.5H10.234L7.84 16.342L7.129 14.983H7.084C7.129 15.649 7.192 16.342 7.192 17.044V20.5H6.4ZM12.9039 20.5V13.903H16.7019V14.605H13.7409V16.675H16.2339V17.386H13.7409V19.798H16.8009V20.5H12.9039ZM18.9327 20.5L17.5287 13.903H18.3837L19.0767 17.503C19.2117 18.205 19.3377 18.916 19.4727 19.636H19.5087C19.6617 18.916 19.8237 18.205 19.9857 17.503L20.8947 13.903H21.6507L22.5687 17.503C22.7307 18.205 22.8837 18.916 23.0457 19.636H23.0907C23.2167 18.916 23.3427 18.205 23.4597 17.503L24.1617 13.903H24.9627L23.5947 20.5H22.5867L21.5967 16.522C21.4797 16.009 21.3717 15.532 21.2727 15.019H21.2367C21.1287 15.532 21.0117 16.009 20.9037 16.522L19.9227 20.5H18.9327ZM27.853 20.626C26.926 20.626 26.125 20.248 25.549 19.645L26.044 19.069C26.521 19.573 27.187 19.888 27.871 19.888C28.735 19.888 29.248 19.456 29.248 18.817C29.248 18.133 28.771 17.917 28.15 17.647L27.205 17.233C26.584 16.972 25.864 16.504 25.864 15.541C25.864 14.524 26.737 13.786 27.943 13.786C28.726 13.786 29.419 14.119 29.878 14.605L29.437 15.136C29.032 14.758 28.546 14.515 27.943 14.515C27.196 14.515 26.71 14.893 26.71 15.478C26.71 16.126 27.286 16.36 27.799 16.576L28.735 16.981C29.509 17.314 30.094 17.773 30.094 18.754C30.094 19.798 29.239 20.626 27.853 20.626Z" fill="black"/>
</svg>
