<svg width="15" height="16" viewBox="0 0 15 16" fill="none" xmlns="http://www.w3.org/2000/svg">
<g id="oui:token-key">
<path id="Vector" fill-rule="evenodd" clip-rule="evenodd" d="M14.5005 5.81096C14.5006 6.51877 14.3445 7.21787 14.0431 7.8584C13.7418 8.49892 13.3028 9.06508 12.7573 9.51647C12.2119 9.96786 11.5735 10.2934 10.8877 10.4698C10.202 10.6462 9.48571 10.6691 8.79005 10.5369L8.13305 11.2746C8.07135 11.3437 7.99579 11.399 7.91128 11.437C7.82677 11.475 7.73521 11.4948 7.64255 11.495H6.62555V12.5895C6.62555 12.6757 6.60854 12.761 6.57551 12.8406C6.54247 12.9202 6.49406 12.9925 6.43303 13.0534C6.372 13.1142 6.29956 13.1625 6.21986 13.1953C6.14016 13.2282 6.05476 13.245 5.96855 13.2448H4.87505V14.3393C4.87505 14.5131 4.80599 14.6797 4.68306 14.8026C4.56013 14.9255 4.3934 14.9945 4.21955 14.9945H1.15505C1.06871 14.9947 0.983192 14.9779 0.903392 14.9449C0.823592 14.912 0.751086 14.8636 0.690038 14.8026C0.628991 14.7416 0.580604 14.6691 0.547657 14.5893C0.51471 14.5096 0.497851 14.4241 0.498049 14.3378V12.2042C0.498148 12.03 0.567168 11.8629 0.690049 11.7394L5.11505 7.31781C4.87627 6.59509 4.81248 5.82604 4.92893 5.07387C5.04538 4.32171 5.33874 3.60791 5.7849 2.99113C6.23106 2.37436 6.81728 1.87222 7.49538 1.52599C8.17348 1.17977 8.9241 0.999337 9.68555 0.999531C10.3182 0.99775 10.9449 1.12099 11.5297 1.36215C12.1145 1.60332 12.6459 1.95766 13.0932 2.40479C13.5405 2.85193 13.895 3.38305 14.1363 3.9676C14.3775 4.55215 14.5023 5.17861 14.5005 5.81096ZM9.68555 4.49902C9.68555 4.84697 9.82383 5.18067 10.07 5.4267C10.3161 5.67274 10.65 5.81096 10.998 5.81096C11.3461 5.81096 11.68 5.67274 11.9261 5.4267C12.1723 5.18067 12.3105 4.84697 12.3105 4.49902C12.3105 4.15108 12.1723 3.81738 11.9261 3.57135C11.68 3.32531 11.3461 3.18709 10.998 3.18709C10.65 3.18709 10.3161 3.32531 10.07 3.57135C9.82383 3.81738 9.68555 4.15108 9.68555 4.49902Z" fill="#989EA0"/>
</g>
</svg>
