<svg width="13" height="16" viewBox="0 0 13 16" fill="none" xmlns="http://www.w3.org/2000/svg">
<g id="fluent:person-16-filled" clip-path="url(#clip0_70_6)">
<path id="Vector" d="M11.1539 8.61523C11.6436 8.61523 12.1131 8.80974 12.4593 9.15596C12.8056 9.50218 13.0001 9.97176 13.0001 10.4614V11.0768C13.0001 13.5026 10.7108 15.9998 6.84623 15.9998C2.98161 15.9998 0.692383 13.5026 0.692383 11.0768V10.4614C0.692383 9.97176 0.886888 9.50218 1.23311 9.15596C1.57933 8.80974 2.04891 8.61523 2.53854 8.61523H11.1539ZM6.84623 0.615234C7.74389 0.615234 8.60478 0.971827 9.23951 1.60657C9.87425 2.2413 10.2308 3.10219 10.2308 3.99985C10.2308 4.89751 9.87425 5.7584 9.23951 6.39313C8.60478 7.02787 7.74389 7.38446 6.84623 7.38446C5.94857 7.38446 5.08768 7.02787 4.45294 6.39313C3.81821 5.7584 3.46161 4.89751 3.46161 3.99985C3.46161 3.10219 3.81821 2.2413 4.45294 1.60657C5.08768 0.971827 5.94857 0.615234 6.84623 0.615234Z" fill="#989EA0"/>
</g>
<defs>
<clipPath id="clip0_70_6">
<rect width="12.3077" height="16" fill="white" transform="translate(0.692383)"/>
</clipPath>
</defs>
</svg>
