<svg width="14" height="16" viewBox="0 0 14 16" fill="none" xmlns="http://www.w3.org/2000/svg">
<g id="fluent:person-20-filled" clip-path="url(#clip0_71_59)">
<path id="Vector" d="M7 0C5.93913 0 4.92172 0.421427 4.17157 1.17157C3.42143 1.92172 3 2.93913 3 4C3 5.06087 3.42143 6.07828 4.17157 6.82843C4.92172 7.57857 5.93913 8 7 8C8.06087 8 9.07828 7.57857 9.82843 6.82843C10.5786 6.07828 11 5.06087 11 4C11 2.93913 10.5786 1.92172 9.82843 1.17157C9.07828 0.421427 8.06087 0 7 0ZM2.009 9C1.7456 8.99881 1.48456 9.04967 1.24087 9.14965C0.997178 9.24963 0.775636 9.39676 0.588965 9.58259C0.402293 9.76843 0.254169 9.98931 0.153097 10.2325C0.0520257 10.4758 -2.66686e-06 10.7366 1.02526e-10 11C1.02527e-10 12.691 0.833 13.966 2.135 14.797C3.417 15.614 5.145 16 7 16C8.855 16 10.583 15.614 11.865 14.797C13.167 13.967 14 12.69 14 11C14 10.4696 13.7893 9.96086 13.4142 9.58579C13.0391 9.21071 12.5304 9 12 9H2.009Z" fill="#989EA0"/>
</g>
<defs>
<clipPath id="clip0_71_59">
<rect width="14" height="16" fill="white"/>
</clipPath>
</defs>
</svg>
