<svg width="38" height="50" viewBox="0 0 38 50" fill="none" xmlns="http://www.w3.org/2000/svg">
<path id="Vector" d="M37.5 14.0625V43.75C37.5 45.4076 36.8415 46.9973 35.6694 48.1694C34.4973 49.3415 32.9076 50 31.25 50H6.25C4.5924 50 3.00268 49.3415 1.83058 48.1694C0.65848 46.9973 0 45.4076 0 43.75V6.25C0 4.5924 0.65848 3.00269 1.83058 1.83058C3.00268 0.65848 4.5924 0 6.25 0L23.4375 0L37.5 14.0625ZM28.125 14.0625C26.8818 14.0625 25.6895 13.5686 24.8104 12.6896C23.9314 11.8105 23.4375 10.6182 23.4375 9.375V3.125H6.25C5.4212 3.125 4.62634 3.45424 4.04029 4.04029C3.45424 4.62634 3.125 5.4212 3.125 6.25V43.75C3.125 44.5788 3.45424 45.3737 4.04029 45.9597C4.62634 46.5458 5.4212 46.875 6.25 46.875H31.25C32.0788 46.875 32.8737 46.5458 33.4597 45.9597C34.0458 45.3737 34.375 44.5788 34.375 43.75V14.0625H28.125Z" fill="black"/>
</svg>
