<svg width="51" height="39" viewBox="0 0 51 39" fill="none" xmlns="http://www.w3.org/2000/svg">
<path id="Vector" d="M39.1641 16.9766C39.1641 17.386 39.0426 17.7863 38.8152 18.1268C38.5877 18.4672 38.2643 18.7326 37.886 18.8893C37.5077 19.046 37.0915 19.087 36.6899 19.0071C36.2883 18.9272 35.9194 18.73 35.6298 18.4405C35.3403 18.151 35.1431 17.7821 35.0632 17.3805C34.9833 16.9789 35.0243 16.5626 35.181 16.1843C35.3377 15.806 35.6031 15.4826 35.9435 15.2552C36.284 15.0277 36.6843 14.9062 37.0938 14.9062C37.6428 14.9062 38.1694 15.1244 38.5577 15.5126C38.9459 15.9009 39.1641 16.4275 39.1641 16.9766ZM31.2969 6.625H23.0156C22.6862 6.625 22.3702 6.75587 22.1373 6.98883C21.9043 7.22178 21.7734 7.53774 21.7734 7.86719C21.7734 8.19664 21.9043 8.51259 22.1373 8.74555C22.3702 8.9785 22.6862 9.10938 23.0156 9.10938H31.2969C31.6263 9.10938 31.9423 8.9785 32.1752 8.74555C32.4082 8.51259 32.5391 8.19664 32.5391 7.86719C32.5391 7.53774 32.4082 7.22178 32.1752 6.98883C31.9423 6.75587 31.6263 6.625 31.2969 6.625ZM50.7578 16.1484V22.7734C50.7578 23.9814 50.2779 25.1399 49.4238 25.9941C48.5696 26.8483 47.4111 27.3281 46.2031 27.3281H45.4226L41.9693 36.9986C41.7682 37.5617 41.3977 38.0488 40.9089 38.3931C40.42 38.7374 39.8366 38.9221 39.2386 38.9219H36.6052C36.0072 38.9221 35.4238 38.7374 34.9349 38.3931C34.446 38.0488 34.0756 37.5617 33.8744 36.9986L33.3796 35.6094H20.9329L20.4381 36.9986C20.2369 37.5617 19.8665 38.0488 19.3776 38.3931C18.8887 38.7374 18.3053 38.9221 17.7073 38.9219H15.0739C14.4759 38.9221 13.8925 38.7374 13.4036 38.3931C12.9148 38.0488 12.5443 37.5617 12.3432 36.9986L9.71594 29.6427C7.13946 26.7533 5.57849 23.1006 5.27098 19.2415C4.53021 19.4893 3.88603 19.9636 3.42946 20.5973C2.97289 21.2311 2.72701 21.9923 2.72656 22.7734C2.72656 23.1029 2.59569 23.4188 2.36273 23.6518C2.12978 23.8848 1.81382 24.0156 1.48438 24.0156C1.15493 24.0156 0.838971 23.8848 0.606016 23.6518C0.37306 23.4188 0.242188 23.1029 0.242188 22.7734C0.242284 21.335 0.741638 19.9412 1.655 18.83C2.56836 17.7188 3.8391 16.9591 5.25027 16.6805C5.54093 12.1645 7.53835 7.92802 10.8374 4.8304C14.1365 1.73278 18.4902 0.00589887 23.0156 0H44.5469C44.8763 0 45.1923 0.130873 45.4252 0.363828C45.6582 0.596783 45.7891 0.912739 45.7891 1.24219C45.7891 1.57164 45.6582 1.88759 45.4252 2.12055C45.1923 2.3535 44.8763 2.48438 44.5469 2.48438H38.7127C41.9463 4.39636 44.4915 7.28295 45.9837 10.7304C46.1079 11.0161 46.2238 11.3039 46.3315 11.5958C47.5167 11.6292 48.6422 12.1235 49.4688 12.9737C50.2953 13.8238 50.7577 14.9627 50.7578 16.1484ZM48.2734 16.1484C48.2734 15.5994 48.0553 15.0728 47.6671 14.6845C47.2788 14.2962 46.7522 14.0781 46.2031 14.0781H45.4454C45.1808 14.0784 44.9231 13.9942 44.7097 13.8378C44.4963 13.6814 44.3385 13.461 44.2591 13.2086C44.1011 12.7028 43.9159 12.2059 43.7043 11.72C42.5169 8.9763 40.5527 6.63993 38.0537 4.99885C35.5548 3.35777 32.6303 2.4837 29.6406 2.48438H23.0156C20.0422 2.48408 17.1329 3.34907 14.6426 4.97385C12.1524 6.59863 10.1887 8.91297 8.99121 11.6346C7.79369 14.3562 7.41405 17.3675 7.89859 20.3012C8.38313 23.2349 9.71092 25.9642 11.72 28.1562C11.8315 28.2757 11.9174 28.4165 11.9726 28.5703L14.6826 36.1559C14.7103 36.2378 14.7629 36.309 14.8331 36.3595C14.9032 36.41 14.9875 36.4373 15.0739 36.4375H17.7073C17.793 36.4377 17.8767 36.4114 17.9468 36.3621C18.0169 36.3127 18.0699 36.2429 18.0986 36.1621L18.8874 33.9531C18.973 33.7112 19.1314 33.5016 19.3408 33.3534C19.5503 33.2051 19.8005 33.1253 20.0571 33.125H34.2554C34.512 33.1253 34.7622 33.2051 34.9717 33.3534C35.1811 33.5016 35.3395 33.7112 35.4251 33.9531L36.2139 36.1663C36.2426 36.247 36.2956 36.3169 36.3657 36.3662C36.4358 36.4155 36.5195 36.4419 36.6052 36.4416H39.2386C39.3243 36.4419 39.408 36.4155 39.478 36.3662C39.5481 36.3169 39.6012 36.247 39.6299 36.1663L43.3772 25.6719C43.4627 25.4299 43.6211 25.2204 43.8305 25.0721C44.04 24.9238 44.2902 24.844 44.5469 24.8438H46.2031C46.7522 24.8438 47.2788 24.6256 47.6671 24.2374C48.0553 23.8491 48.2734 23.3225 48.2734 22.7734V16.1484Z" fill="black"/>
</svg>
