<svg width="21" height="19" viewBox="0 0 21 19" fill="none" xmlns="http://www.w3.org/2000/svg">
<g id="Group">
<path id="Vector" d="M6.4165 18.5C7.383 18.5 8.1665 17.7165 8.1665 16.75C8.1665 15.7835 7.383 15 6.4165 15C5.45001 15 4.6665 15.7835 4.6665 16.75C4.6665 17.7165 5.45001 18.5 6.4165 18.5Z" fill="white"/>
<path id="Vector_2" d="M16.9165 18.5C17.883 18.5 18.6665 17.7165 18.6665 16.75C18.6665 15.7835 17.883 15 16.9165 15C15.95 15 15.1665 15.7835 15.1665 16.75C15.1665 17.7165 15.95 18.5 16.9165 18.5Z" fill="white"/>
<path id="Vector_3" d="M1.1665 1H3.49984L4.19984 4.5M4.19984 4.5L5.83317 12.6667H17.4998L19.8332 4.5H4.19984Z" stroke="white" stroke-width="2" stroke-linecap="round" stroke-linejoin="round"/>
</g>
</svg>
