<svg width="43" height="41" viewBox="0 0 43 41" fill="none" xmlns="http://www.w3.org/2000/svg">
<path id="Vector" d="M41.2454 6.49519L22.0067 0.0822842C21.6776 -0.0274281 21.3218 -0.0274281 20.9926 0.0822842L1.75392 6.49519C1.43469 6.60161 1.15703 6.80578 0.960291 7.07877C0.763547 7.35177 0.65769 7.67975 0.657715 8.01625V24.0485C0.657715 24.4737 0.826626 24.8815 1.12729 25.1822C1.42795 25.4828 1.83574 25.6517 2.26094 25.6517C2.68614 25.6517 3.09393 25.4828 3.39459 25.1822C3.69526 24.8815 3.86417 24.4737 3.86417 24.0485V10.2407L10.5957 12.4832C8.80723 15.3727 8.2385 18.8537 9.01441 22.1621C9.79031 25.4705 11.8474 28.3358 14.734 30.1288C11.1268 31.5436 8.00851 34.1028 5.72792 37.6018C5.60931 37.7781 5.52693 37.9762 5.48555 38.1846C5.44418 38.393 5.44464 38.6075 5.48692 38.8158C5.52919 39.024 5.61243 39.2217 5.7318 39.3975C5.85116 39.5732 6.00428 39.7235 6.18224 39.8396C6.3602 39.9557 6.55946 40.0352 6.76843 40.0736C6.9774 40.112 7.19192 40.1085 7.39952 40.0632C7.60711 40.018 7.80364 39.9319 7.97769 39.81C8.15173 39.6882 8.29981 39.5329 8.41333 39.3533C11.4334 34.72 16.203 32.0647 21.4997 32.0647C26.7963 32.0647 31.5659 34.72 34.586 39.3533C34.8212 39.7028 35.1844 39.9457 35.5972 40.0295C36.01 40.1133 36.4392 40.0313 36.792 39.8012C37.1448 39.5711 37.3929 39.2113 37.4826 38.7998C37.5723 38.3882 37.4965 37.9579 37.2714 37.6018C34.9908 34.1028 31.8605 31.5436 28.2653 30.1288C31.1491 28.3358 33.2043 25.4725 33.9801 22.1665C34.7559 18.8605 34.1889 15.3818 32.4036 12.4933L41.2454 9.54733C41.5647 9.44098 41.8424 9.23683 42.0393 8.96383C42.2361 8.69083 42.342 8.36282 42.342 8.02627C42.342 7.68973 42.2361 7.36171 42.0393 7.08871C41.8424 6.81571 41.5647 6.61157 41.2454 6.50521V6.49519ZM31.119 19.2388C31.1195 20.7596 30.7593 22.2588 30.0681 23.6134C29.377 24.9681 28.3745 26.1395 27.1429 27.0317C25.9113 27.9239 24.4857 28.5113 22.9832 28.7458C21.4806 28.9804 19.9438 28.8553 18.4989 28.3809C17.054 27.9065 15.7422 27.0963 14.6711 26.0167C13.6 24.9372 12.8001 23.619 12.337 22.1705C11.874 20.7219 11.761 19.1842 12.0073 17.6835C12.2536 16.1828 12.8523 14.7619 13.7541 13.5374L20.9926 15.9422C21.3218 16.0519 21.6776 16.0519 22.0067 15.9422L29.2453 13.5374C30.4632 15.1887 31.1199 17.1869 31.119 19.2388ZM21.4997 12.7398L7.33115 8.01625L21.4997 3.29275L35.6682 8.01625L21.4997 12.7398Z" fill="black"/>
</svg>
