<svg width="51" height="45" viewBox="0 0 51 45" fill="none" xmlns="http://www.w3.org/2000/svg">
<path id="Vector" d="M50.128 4.68539C48.7482 3.2069 47.079 2.02801 45.2243 1.22197C43.3695 0.415941 41.3688 0 39.3464 0C37.3241 0 35.3233 0.415941 33.4686 1.22197C31.6138 2.02801 29.9446 3.2069 28.5648 4.68539C27.2777 6.0385 26.2388 7.6076 25.4957 9.32087C24.7521 7.60921 23.7132 6.04168 22.4266 4.68994C21.0468 3.21145 19.3776 2.03255 17.5228 1.22652C15.668 0.420488 13.6673 0.00454605 11.645 0.00454605C9.62262 0.00454605 7.62189 0.420488 5.76711 1.22652C3.91234 2.03255 2.24316 3.21145 0.863331 4.68994C0.712284 4.84962 0.602063 5.04344 0.542054 5.25489C0.482045 5.46635 0.474024 5.68917 0.518676 5.90439C0.563327 6.11961 0.659328 6.32085 0.798504 6.49098C0.937679 6.66111 1.11591 6.79508 1.31801 6.8815L15.3745 12.997C14.9539 13.0743 14.5333 13.1652 14.115 13.2766C12.0979 13.8049 10.2055 14.7276 8.54714 15.9915C6.88875 17.2554 5.49725 18.8354 4.45304 20.6402C3.40182 22.4338 2.71954 24.4193 2.44626 26.4802C2.17298 28.5411 2.31421 30.6359 2.86165 32.6415C2.91985 32.8576 3.03034 33.0561 3.18337 33.2194C3.33641 33.3828 3.5273 33.506 3.73919 33.5781C3.88058 33.6258 4.02874 33.6504 4.17796 33.6509C4.47699 33.6509 4.76774 33.5526 5.00548 33.3712L24.1316 18.7873V43.1946C24.1316 43.5564 24.2754 43.9033 24.5312 44.1591C24.787 44.4149 25.1339 44.5587 25.4957 44.5587C25.8575 44.5587 26.2044 44.4149 26.4602 44.1591C26.716 43.9033 26.8597 43.5564 26.8597 43.1946V18.7873L45.995 33.3667C46.2327 33.5481 46.5235 33.6463 46.8225 33.6463C46.9717 33.6458 47.1199 33.6213 47.2613 33.5736C47.4732 33.5014 47.6641 33.3782 47.8171 33.2149C47.9701 33.0516 48.0806 32.8531 48.1388 32.6369C48.6863 30.6313 48.8275 28.5366 48.5542 26.4757C48.2809 24.4148 47.5987 22.4292 46.5474 20.6356C45.5032 18.8308 44.1117 17.2508 42.4533 15.9869C40.7949 14.723 38.9025 13.8003 36.8855 13.272C36.4672 13.1606 36.0466 13.0697 35.626 12.9924L49.6825 6.87695C49.8846 6.79054 50.0628 6.65656 50.202 6.48643C50.3411 6.31631 50.4371 6.11506 50.4818 5.89984C50.5264 5.68462 50.5184 5.4618 50.4584 5.25035C50.3984 5.03889 50.2882 4.84507 50.1371 4.68539H50.128ZM11.6461 2.72799C13.2981 2.73189 14.9317 3.07444 16.4461 3.73448C17.9606 4.39451 19.3236 5.35802 20.451 6.5655C22.3315 8.54789 23.559 11.0592 23.968 13.7608L4.3371 5.22873C6.42967 3.6095 9.00019 2.73 11.6461 2.72799ZM5.10096 29.8565C4.81839 27.1256 5.41408 24.3757 6.80147 22.0065C7.66853 20.5128 8.82261 19.2054 10.1972 18.1597C11.5718 17.114 13.1397 16.3507 14.8107 15.9137C15.9319 15.6136 17.0874 15.4607 18.2481 15.4591C19.8348 15.4585 21.4085 15.7458 22.8926 16.307L5.10096 29.8565ZM44.1899 22.0065C45.5773 24.3757 46.173 27.1256 45.8904 29.8565L28.1033 16.3048C31.0265 15.2053 34.2442 15.1745 37.1879 16.2178C40.1315 17.2612 42.6117 19.3115 44.1899 22.0065ZM27.0234 13.7608C27.4324 11.0592 28.6599 8.54789 30.5404 6.5655C31.6678 5.35802 33.0308 4.39451 34.5452 3.73448C36.0596 3.07444 37.6933 2.73189 39.3453 2.72799C41.9912 2.73 44.5617 3.6095 46.6543 5.22873L27.0234 13.7608Z" fill="black"/>
</svg>
