<svg width="33" height="32" viewBox="0 0 33 32" fill="none" xmlns="http://www.w3.org/2000/svg">
<path d="M13.6124 2.76374C15.4812 1.17117 18.2298 1.17117 20.0986 2.76374L20.5219 3.12451C21.3227 3.80697 22.3184 4.2194 23.3673 4.3031L23.9217 4.34734C26.3693 4.54266 28.3128 6.48621 28.5081 8.93376L28.5524 9.48822C28.6361 10.537 29.0485 11.5327 29.731 12.3336L30.0917 12.7569C31.6843 14.6257 31.6843 17.3743 30.0917 19.2431L29.731 19.6664C29.0485 20.4673 28.6361 21.463 28.5524 22.5118L28.5081 23.0662C28.3128 25.5138 26.3693 27.4573 23.9217 27.6527L23.3673 27.6969C22.3184 27.7806 21.3227 28.193 20.5219 28.8755L20.0986 29.2363C18.2298 30.8288 15.4812 30.8288 13.6124 29.2363L13.189 28.8755C12.3882 28.193 11.3925 27.7806 10.3437 27.6969L9.78923 27.6527C7.34168 27.4573 5.39813 25.5138 5.20281 23.0662L5.15856 22.5118C5.07487 21.463 4.66244 20.4673 3.97998 19.6664L3.61921 19.2431C2.02664 17.3743 2.02664 14.6257 3.61921 12.7569L3.97998 12.3336C4.66244 11.5327 5.07487 10.537 5.15856 9.48822L5.20281 8.93376C5.39813 6.48621 7.34168 4.54266 9.78923 4.34734L10.3437 4.3031C11.3925 4.2194 12.3882 3.80697 13.189 3.12451L13.6124 2.76374Z" fill="#FF563A"/>
<circle cx="16.8577" cy="16" r="9.14286" fill="#FFD873"/>
<path d="M16.8549 18.9437C16.5085 19.2928 16.0284 19.509 15.4978 19.509C14.4419 19.509 13.5859 18.653 13.5859 17.5971C13.5859 16.5413 14.4419 15.6853 15.4978 15.6853C16.0284 15.6853 16.5085 15.9015 16.8549 16.2506C17.2013 15.9015 17.6814 15.6853 18.2121 15.6853C19.2679 15.6853 20.1239 16.5413 20.1239 17.5971C20.1239 18.653 19.2679 19.509 18.2121 19.509C17.6814 19.509 17.2013 19.2928 16.8549 18.9437Z" fill="white"/>
<path d="M16.8532 13.6433C16.1931 13.6433 15.1133 15.2441 15.1133 16.2438C15.1133 17.4935 16.1138 17.7282 16.8532 17.7283" fill="#FF563A"/>
<path d="M16.8532 13.6433C17.6306 13.6433 18.5935 15.2441 18.5935 16.2438C18.5935 17.4935 17.5925 17.7282 16.8532 17.7283" fill="#FF563A"/>
<path d="M16.8531 15.8152C16.5407 15.8152 15.9258 16.3714 15.9258 16.7187C15.9258 17.1529 16.4589 17.2345 16.8531 17.2346" fill="#212529"/>
<path d="M16.8531 15.8152C17.1925 15.8152 17.7809 16.3714 17.7809 16.7187C17.7809 17.1529 17.2472 17.2345 16.8531 17.2346" fill="#212529"/>
<circle cx="12.7101" cy="14.9406" r="0.80385" fill="#212529"/>
<circle cx="20.9992" cy="14.9406" r="0.80385" fill="#212529"/>
</svg>
